# xmcd
#
# Track frame offsets: 
#        150
#        16331
#        30912
#        48264
#        64227
#        83198
#        94955
#        110528
#        129040
#        145010
#        157293
#        177249
#        189678
#
# Disc length: 2765 seconds
#
# Revision: 0
# Processed by: cddbd v1.4PL0 Copyright (c) Steve Scherf et al.
# Submitted via: ExactAudioCopy v0.95a3
#
DISCID=a80acb0d
DTITLE=Profile - What About Forever
DYEAR=1900
DGENRE=Country
TTITLE0=Each Time I Pray
TTITLE1=It Wasn't Meant To Be
TTITLE2=Down To My Toes
TTITLE3=Only You know
TTITLE4=Cryin'Bitter Tears
TTITLE5=My Redeemer
TTITLE6=What About Forever
TTITLE7=Once Again
TTITLE8=Safe In Christ
TTITLE9=What Would My Life Be
TTITLE10=Don't Worry 'Bout Me
TTITLE11=I'm Connected
TTITLE12=I Give You My Heart Today
EXTD=
EXTT0=
EXTT1=
EXTT2=
EXTT3=
EXTT4=
EXTT5=
EXTT6=
EXTT7=
EXTT8=
EXTT9=
EXTT10=
EXTT11=
EXTT12=
PLAYORDER=
